<svg width="200" height="200" xmlns="http://www.w3.org/2000/svg">
 <!-- Created with Method Draw - http://github.com/duopixel/Method-Draw/ -->

 <g>
  <title>background</title>
  <rect fill="#fff" id="canvas_background" height="202" width="202" y="-1" x="-1"/>
  <g display="none" overflow="visible" y="0" x="0" height="100%" width="100%" id="canvasGrid">
   <rect fill="url(#gridpattern)" stroke-width="0" y="0" x="0" height="100%" width="100%"/>
  </g>
 </g>
 <g>
  <title>Layer 1</title>
  <g stroke="null" id="svg_8">
   <g stroke="null" transform="matrix(1.7777778837415923,0,0,1.768372747072604,0,0.5527868487597516) " id="svg_4">
    <polygon stroke="null" id="svg_5" points="84.5999984741211,55.41804790496826 101.29999542236328,38.71804332733154 84.5999984741211,22.01804256439209 79.00000762939453,27.718043327331543 86.00000762939453,34.71804332733154 67.49999237060547,34.71804332733154 51.400001525878906,51.41804790496826 35.400001525878906,34.71804332733154 12.099998474121094,34.71804332733154 12.099998474121094,42.71804332733154 31.99999237060547,42.71804332733154 45.900001525878906,57.21804332733154 31.99999237060547,71.71804332733154 12.099998474121094,71.71804332733154 12.099998474121094,79.71804714202881 35.400001525878906,79.71804714202881 51.400001525878906,63.018038749694824 67.49999237060547,79.71804714202881 86.00000762939453,79.71804714202881 79.00000762939453,86.71804714202881 84.5999984741211,92.418044090271 101.29999542236328,75.71804714202881 84.5999984741211,59.018038749694824 79.00000762939453,64.71804332733154 86.00000762939453,71.71804332733154 70.9000015258789,71.71804332733154 56.99999237060547,57.21804332733154 70.9000015258789,42.71804332733154 86.00000762939453,42.71804332733154 79.00000762939453,49.71804332733154 84.5999984741211,55.41804790496826 "/>
   </g>
  </g>
 </g>
</svg>