<?xml version="1.0" encoding="utf-8"?>
<!-- Generator: Adobe Illustrator 22.0.0, SVG Export Plug-In . SVG Version: 6.00 Build 0)  -->
<svg version="1.1" id="Layer_1" xmlns="http://www.w3.org/2000/svg" xmlns:xlink="http://www.w3.org/1999/xlink" x="0px" y="0px"
	 viewBox="0 0 100 125" style="enable-background:new 0 0 100 125;" xml:space="preserve">
<path d="M34.7,8.2c-4.7,2.3-7.2,5.6-7.2,9.3v65c0,3.7,2.6,7,7.2,9.3C38.9,93.9,44.5,95,50,95c5.5,0,11.1-1.1,15.3-3.2
	c4.7-2.3,7.2-5.6,7.2-9.3v-65c0-3.7-2.6-7-7.2-9.3C56.9,4,43.1,4,34.7,8.2z M67.5,82.5c0,1.7-1.6,3.4-4.5,4.8
	c-7.1,3.5-19,3.5-26.1,0c-2.8-1.4-4.5-3.2-4.5-4.8v-57c0.7,0.5,1.4,0.9,2.2,1.3C38.9,28.9,44.5,30,50,30c5.5,0,11.1-1.1,15.3-3.2
	c0.8-0.4,1.5-0.8,2.2-1.3V82.5z M67.5,17.5c0,1.7-1.6,3.4-4.5,4.8c-7.1,3.5-19,3.5-26.1,0c-2.8-1.4-4.5-3.2-4.5-4.8s1.6-3.4,4.5-4.8
	c3.5-1.8,8.3-2.7,13-2.7s9.5,0.9,13,2.7C65.9,14.1,67.5,15.8,67.5,17.5z"/>
</svg>
