<svg width="200" height="200" xmlns="http://www.w3.org/2000/svg">
 <!-- Created with Method Draw - http://github.com/duopixel/Method-Draw/ -->

 <g>
  <title>background</title>
  <rect fill="#fff" id="canvas_background" height="202" width="202" y="-1" x="-1"/>
  <g display="none" overflow="visible" y="0" x="0" height="100%" width="100%" id="canvasGrid">
   <rect fill="url(#gridpattern)" stroke-width="0" y="0" x="0" height="100%" width="100%"/>
  </g>
 </g>
 <g>
  <title>Layer 1</title>
  <g stroke="null" id="svg_15">
   <path stroke="null" id="svg_12" d="m163.450591,41.224341l-62.958015,0l-62.958015,0l-22.021624,40.027591l84.979639,97.888079l84.979639,-97.888079l-22.021624,-40.027591zm-5.792212,10.781299l12.899909,23.450388l-23.182445,0l10.282536,-23.450388zm-10.991266,-0.513152l-9.410645,21.470843l-23.520664,-21.470843l32.93131,0zm-21.916249,23.96354l-24.258288,0l-24.258288,0l24.258288,-22.145417l24.258288,22.145417zm-37.501515,-23.96354l-23.518965,21.470843l-9.412345,-21.470843l32.93131,0zm-43.922576,0.513152l10.282536,23.450388l-23.182445,0l12.899909,-23.450388zm-10.328425,33.718534l25.113183,0l25.62646,58.450104l-50.739643,-58.450104zm36.328796,0l31.165433,0l31.167132,0l-31.167132,71.08181l-31.165433,-71.08181zm47.918319,58.451803l25.62646,-58.450104l25.114882,0l-50.741342,58.450104z"/>
  </g>
 </g>
</svg>