<?xml version="1.0" encoding="utf-8"?>
<!-- Generator: Adobe Illustrator 22.0.0, SVG Export Plug-In . SVG Version: 6.00 Build 0)  -->
<svg version="1.1" id="Layer_1" xmlns="http://www.w3.org/2000/svg" xmlns:xlink="http://www.w3.org/1999/xlink" x="0px" y="0px"
	 viewBox="0 0 65.4 81.8" style="enable-background:new 0 0 65.4 81.8;" xml:space="preserve">
<title>cd (anglais)</title>
<g>
	<g>
		<path d="M32.7,0C14.6,0,0,14.6,0,32.7s14.6,32.7,32.7,32.7s32.7-14.6,32.7-32.7c0,0,0,0,0,0C65.4,14.7,50.8,0,32.7,0z M32.7,63.4
			C15.8,63.4,2,49.7,2,32.7C2,15.8,15.7,2,32.7,2c17,0,30.7,13.7,30.7,30.7c0,0,0,0,0,0C63.4,49.7,49.7,63.4,32.7,63.4z"/>
		<path d="M43.5,32.7c0-6-4.8-10.8-10.8-10.8s-10.8,4.8-10.8,10.8s4.8,10.8,10.8,10.8c0,0,0,0,0,0C38.7,43.5,43.5,38.7,43.5,32.7z
			 M23.9,32.7c0-4.8,3.9-8.8,8.8-8.8s8.8,3.9,8.8,8.8s-3.9,8.8-8.8,8.8l0,0C27.9,41.5,23.9,37.6,23.9,32.7z"/>
		<path d="M33.7,11.4c0-0.6-0.4-1-1-1c-12.3,0-22.3,10-22.4,22.4c0,0.6,0.4,1,1,1s1-0.4,1-1c0-11.2,9.1-20.3,20.4-20.4
			C33.3,12.4,33.7,11.9,33.7,11.4z"/>
		<path d="M54.1,31.7c-0.6,0-1,0.4-1,1l0,0c0,11.2-9.1,20.3-20.4,20.4c-0.6,0-1,0.4-1,1s0.4,1,1,1c12.3,0,22.3-10,22.4-22.4
			C55.1,32.2,54.6,31.7,54.1,31.7C54.1,31.7,54.1,31.7,54.1,31.7z"/>
	</g>
</g>
</svg>
