<?xml version="1.0" encoding="utf-8"?>
<!-- Generator: Adobe Illustrator 22.0.0, SVG Export Plug-In . SVG Version: 6.00 Build 0)  -->
<svg version="1.1" id="Layer_1" xmlns="http://www.w3.org/2000/svg" xmlns:xlink="http://www.w3.org/1999/xlink" x="0px" y="0px"
	 viewBox="0 0 100 125" style="enable-background:new 0 0 100 125;" xml:space="preserve">
<path d="M80.3,23.4c-2.7,9.8-8.4,16.3-17.1,19.5c2.1-20.7,15.9-28.5,29.7-34.3c-20.3-1.7-38.5,4.3-53.4,20.9
	c0.1-6.7,2.8-11.7,8-15.2c-15.7,2.1-23.9,11.9-27.6,26.2c-2.2-3.1-2.6-6.8-1.7-11c0,0-13.7,16.9-10.5,35.6
	c2.2,12.8,12.7,22.2,24.8,25.2c7.2,1.8,15.2,1.4,22.1-1.4c16.1-6.4,23.3-25.6,23.3-25.6c-3,3.1-6.4,4.6-10.2,4.4
	C78.1,55.6,81.4,40.5,80.3,23.4z"/>
</svg>
