<?xml version="1.0" encoding="utf-8"?>
<!-- Generator: Adobe Illustrator 22.0.0, SVG Export Plug-In . SVG Version: 6.00 Build 0)  -->
<svg version="1.1" id="Layer_1" xmlns="http://www.w3.org/2000/svg" xmlns:xlink="http://www.w3.org/1999/xlink" x="0px" y="0px"
	 viewBox="0 0 98 122.5" style="enable-background:new 0 0 98 122.5;" xml:space="preserve">
<path d="M77.3,34.8c-0.7-1.2-2-2-3.4-2h-14L68.7,6c0.4-1.2,0.2-2.6-0.6-3.6c-0.8-1-2-1.7-3.2-1.7H40.7c-1.7,0-3.3,1.1-3.8,2.7
	l-16.5,50C20,54.6,20.2,56,21,57s2,1.7,3.2,1.7h16.9l-2.2,34.1c-0.1,1.9,1.1,3.6,2.9,4.1c0.4,0.1,0.7,0.2,1.1,0.2
	c1.4,0,2.8-0.8,3.5-2.1l31-56.4C78.1,37.5,78,36,77.3,34.8z M48,75.5l1.3-20.4c0.1-1.1-0.3-2.2-1.1-3s-1.8-1.3-2.9-1.3H29.7l13.9-42
	h15.8l-8.8,26.8c-0.4,1.2-0.2,2.6,0.6,3.6s2,1.7,3.2,1.7h12.8L48,75.5z"/>
</svg>
