<?xml version="1.0" encoding="utf-8"?>
<!-- Generator: Adobe Illustrator 22.0.0, SVG Export Plug-In . SVG Version: 6.00 Build 0)  -->
<svg version="1.1" id="Layer_1" xmlns="http://www.w3.org/2000/svg" xmlns:xlink="http://www.w3.org/1999/xlink" x="0px" y="0px"
	 viewBox="0 0 100 125" style="enable-background:new 0 0 100 125;" xml:space="preserve">
<path d="M53,50c0,1.7-1.3,3-3,3s-3-1.3-3-3s1.3-3,3-3S53,48.3,53,50z M40,47c-1.7,0-3,1.3-3,3s1.3,3,3,3s3-1.3,3-3S41.7,47,40,47z
	 M60,47c-1.7,0-3,1.3-3,3s1.3,3,3,3s3-1.3,3-3S61.7,47,60,47z M75,50c0,13.8-11.2,25-25,25S25,63.8,25,50s11.2-25,25-25
	S75,36.2,75,50z M71,50c0-11.6-9.4-21-21-21s-21,9.4-21,21s9.4,21,21,21S71,61.6,71,50z"/>
</svg>
