<?xml version="1.0" encoding="utf-8"?>
<!-- Generator: Adobe Illustrator 22.0.0, SVG Export Plug-In . SVG Version: 6.00 Build 0)  -->
<svg version="1.1"
	 id="Layer_1" xmlns:cc="http://creativecommons.org/ns#" xmlns:dc="http://purl.org/dc/elements/1.1/" xmlns:inkscape="http://www.inkscape.org/namespaces/inkscape" xmlns:rdf="http://www.w3.org/1999/02/22-rdf-syntax-ns#" xmlns:sodipodi="http://sodipodi.sourceforge.net/DTD/sodipodi-0.dtd" xmlns:svg="http://www.w3.org/2000/svg"
	 xmlns="http://www.w3.org/2000/svg" xmlns:xlink="http://www.w3.org/1999/xlink" x="0px" y="0px" viewBox="0 0 100 125"
	 style="enable-background:new 0 0 100 125;" xml:space="preserve">
<g transform="translate(0,-952.36218)">
	<path d="M50,975.4c-11.9,0-22.7,2.8-30.7,7.6S6,994.6,6,1002.4c0,7.8,5.3,14.6,13.3,19.4s18.8,7.6,30.7,7.6s22.7-2.9,30.7-7.6
		s13.3-11.6,13.3-19.4c0-7.8-5.3-14.7-13.3-19.4S61.9,975.4,50,975.4z M50,979.4c11.3,0,21.5,2.7,28.7,7s11.3,10,11.3,16
		c0,6-4.1,11.6-11.3,15.9c-7.2,4.3-17.4,7.1-28.7,7.1s-21.5-2.8-28.7-7.1c-7.2-4.3-11.3-9.9-11.3-15.9c0-6,4.1-11.7,11.3-16
		S38.7,979.4,50,979.4z"/>
</g>
</svg>
