<?xml version="1.0" encoding="utf-8"?>
<!-- Generator: Adobe Illustrator 22.0.0, SVG Export Plug-In . SVG Version: 6.00 Build 0)  -->
<svg version="1.1" id="Layer_1" xmlns="http://www.w3.org/2000/svg" xmlns:xlink="http://www.w3.org/1999/xlink" x="0px" y="0px"
	 viewBox="0 0 24 30" style="enable-background:new 0 0 24 30;" xml:space="preserve">
<g>
	<g>
		<path d="M8.1,14.9C8,13.8,8,12.8,8,12c0-3.1,0.2-9.3,2.1-11.8C4.4,1.1,0,6,0,12C0,13.6,3.7,14.5,8.1,14.9z M9.1,14.9
			C10,15,11,15,12,15c5.8,0,12-0.9,12-3c0-6.6-5.4-12-12-12C9.9,0,9,6.2,9,12C9,13,9,14,9.1,14.9z M0.2,13.9C1,19,5,23,10.1,23.8
			c-1.2-1.7-1.7-5-1.9-8C5.2,15.7,1.9,15.1,0.2,13.9z M9.1,15.9C9.5,20.3,10.4,24,12,24c6,0,10.9-4.4,11.8-10.1
			C21.3,15.8,15.1,16,12,16C11.2,16,10.2,16,9.1,15.9z"/>
	</g>
</g>
</svg>
