<?xml version="1.0" encoding="utf-8"?>
<!-- Generator: Adobe Illustrator 22.0.0, SVG Export Plug-In . SVG Version: 6.00 Build 0)  -->
<svg version="1.1" id="Layer_1" xmlns="http://www.w3.org/2000/svg" xmlns:xlink="http://www.w3.org/1999/xlink" x="0px" y="0px"
	 viewBox="0 0 100 125" style="enable-background:new 0 0 100 125;" xml:space="preserve">
<title>Artboard 1</title>
<path d="M50,18c-17.7,0-32,14.3-32,32s14.3,32,32,32s32-14.3,32-32S67.7,18,50,18z M54,73h-8v-8h8V73z M56.1,54.6
	c-1.4,0.8-2.2,2.3-2.1,3.9V59h-8v-0.5c-0.1-4.6,2.5-8.9,6.6-11.1c2.1-1,3.4-3.1,3.4-5.4c-0.1-3.3-2.7-5.9-6-6c-3.3,0-6,2.7-6,6h-8
	c0-7.7,6.3-14,14-14c7.7,0.1,13.9,6.3,14,14C64,47.4,61,52.3,56.1,54.6z"/>
</svg>
